<svg width="12" height="12" viewBox="0 0 12 12" fill="none" xmlns="http://www.w3.org/2000/svg">
<g clip-path="url(#clip0_22_1185)">
<path d="M7.5 2.50001L9.5 4.50001M10.587 3.40601C10.8514 3.14172 10.9999 2.78324 10.9999 2.40943C11 2.03563 10.8515 1.67711 10.5873 1.41276C10.323 1.1484 9.96448 0.999864 9.59068 0.999817C9.21687 0.99977 8.85835 1.14822 8.594 1.41251L1.921 8.08701C1.80491 8.20276 1.71906 8.34527 1.671 8.50201L1.0105 10.678C0.997578 10.7212 0.996602 10.7672 1.00768 10.8109C1.01875 10.8547 1.04146 10.8946 1.0734 10.9265C1.10534 10.9584 1.14531 10.981 1.18908 10.992C1.23285 11.003 1.27878 11.002 1.322 10.989L3.4985 10.329C3.65508 10.2814 3.79759 10.1961 3.9135 10.0805L10.587 3.40601Z" stroke="#333333" stroke-linecap="round" stroke-linejoin="round"/>
</g>
<defs>
<clipPath id="clip0_22_1185">
<rect width="12" height="12" fill="white"/>
</clipPath>
</defs>
</svg>
