<svg width="74" height="54" viewBox="0 0 74 54" fill="none" xmlns="http://www.w3.org/2000/svg">
<path d="M5.88232 23.7498C5.88232 22.9214 6.5539 22.2498 7.38232 22.2498C8.21075 22.2498 8.88232 22.9214 8.88232 23.7498V36.1746H25.6528V23.7498C25.6528 22.9214 26.3244 22.2498 27.1528 22.2498C27.9812 22.2498 28.6528 22.9214 28.6528 23.7498V37.6746C28.6528 43.9617 23.5542 49.0594 17.2671 49.0594C10.9802 49.0591 5.88239 43.9616 5.88232 37.6746V23.7498ZM33.3179 47.5574V23.7498C33.3179 22.9214 33.9895 22.2499 34.8179 22.2498C35.6463 22.2498 36.3179 22.9214 36.3179 23.7498V47.5574C36.3179 48.3859 35.6463 49.0574 34.8179 49.0574C33.9895 49.0574 33.3179 48.3858 33.3179 47.5574ZM62.0444 44.366C62.0444 40.3852 58.8108 37.1532 54.8315 37.1531H47.7368V46.0574H62.0444V44.366ZM9.01904 39.1746C9.72653 43.089 13.1492 46.0592 17.2671 46.0594C21.3852 46.0594 24.8086 43.0891 25.5161 39.1746H9.01904ZM62.0444 15.0945C62.0442 11.1445 58.8421 7.94239 54.8921 7.9422C50.9419 7.9422 47.739 11.1444 47.7388 15.0945C47.7388 19.0449 50.9417 22.2479 54.8921 22.2479C58.8423 22.2477 62.0444 19.0448 62.0444 15.0945ZM65.0444 47.5574C65.0444 48.3859 64.3729 49.0574 63.5444 49.0574H46.2368C45.4085 49.0573 44.7368 48.3858 44.7368 47.5574V35.6531C44.7368 34.8248 45.4085 34.1533 46.2368 34.1531H53.3921V29.3533H43.3657C42.5373 29.3533 41.8657 28.6817 41.8657 27.8533C41.8658 27.025 42.5373 26.3534 43.3657 26.3533H66.4175C67.2459 26.3533 67.9174 27.0249 67.9175 27.8533C67.9175 28.6818 67.2459 29.3533 66.4175 29.3533H56.3921V34.2713C61.2885 35.0234 65.0444 39.2587 65.0444 44.366V47.5574ZM65.0444 15.0945C65.0444 20.7016 60.4991 25.2477 54.8921 25.2479C49.2849 25.2479 44.7388 20.7017 44.7388 15.0945C44.739 9.48752 49.285 4.9422 54.8921 4.9422C60.499 4.94239 65.0442 9.48764 65.0444 15.0945Z" fill="#333333"/>
</svg>
