<svg width="43" height="32" viewBox="0 0 43 32" fill="none" xmlns="http://www.w3.org/2000/svg">
<path d="M3.42725 14.074C3.42725 13.583 3.81854 13.1851 4.30123 13.1851C4.78392 13.1851 5.17521 13.583 5.17521 14.074V21.4368H14.9466V14.074C14.9466 13.583 15.3379 13.1851 15.8206 13.1851C16.3033 13.1851 16.6946 13.5831 16.6946 14.074V22.3257C16.6946 26.0514 13.7239 29.0722 10.0606 29.0722C6.39753 29.0721 3.42728 26.0513 3.42725 22.3257V14.074ZM19.4127 28.1822V14.074C19.4127 13.5831 19.8041 13.1851 20.2867 13.1851C20.7694 13.1851 21.1607 13.583 21.1607 14.074V28.1822C21.1607 28.6731 20.7694 29.0711 20.2867 29.0711C19.8041 29.071 19.4127 28.6731 19.4127 28.1822ZM36.1504 26.291C36.1504 23.932 34.2663 22.0167 31.9478 22.0167H27.814V27.2933H36.1504V26.291ZM5.25487 23.2146C5.6671 25.5342 7.66133 27.2943 10.0606 27.2945C12.4601 27.2945 14.4548 25.5343 14.867 23.2146H5.25487ZM36.1504 8.94491C36.1503 6.60414 34.2846 4.7066 31.9831 4.70649C29.6815 4.70649 27.8153 6.60407 27.8151 8.94491C27.8151 11.2859 29.6814 13.1839 31.9831 13.1839C34.2847 13.1838 36.1504 11.2858 36.1504 8.94491ZM37.8984 28.1822C37.8984 28.6731 37.5071 29.0711 37.0244 29.0711H26.94C26.4574 29.071 26.066 28.6731 26.066 28.1822V21.1278C26.066 20.6369 26.4574 20.239 26.94 20.2389H31.1091V17.3946H25.2672C24.7845 17.3946 24.3932 16.9966 24.3932 16.5057C24.3932 16.0148 24.7845 15.6168 25.2672 15.6168H38.6984C39.1811 15.6168 39.5724 16.0148 39.5724 16.5057C39.5724 16.9966 39.1811 17.3946 38.6984 17.3946H32.8571V20.3089C35.71 20.7546 37.8984 23.2644 37.8984 26.291V28.1822ZM37.8984 8.94491C37.8984 12.2676 35.25 14.9616 31.9831 14.9617C28.716 14.9617 26.0672 12.2677 26.0672 8.94491C26.0673 5.62223 28.7161 2.92871 31.9831 2.92871C35.25 2.92882 37.8983 5.6223 37.8984 8.94491Z" fill="#333333"/>
</svg>
